#!OML:ASF F:\VICON\USERDATA\INSTALL\rory3\rory3.ASF
:FULLY-SPECIFIED
:DEGREES
71
root 0.9792203349364884 17.902833160860517 20.792355696518165 -3.9189609459205084 -1.2443365648991978 -0.1759316003749567
lfemur -4.300267894639106 -2.4638072741618506 -24.438197293655367
ltibia 28.047488275473675
lfoot -6.969913073607774 -2.490475506193512
ltoes -10.539922365820253
rfemur -22.088229499012797 -2.0694991320467935 24.028666579911036
rtibia 73.87521137887217
rfoot -3.633098465909585 -9.317506101606387
rtoes 6.143174722400612
lowerback 11.50747951153721 0.5579980341414689 -0.7317725146302207
upperback 0.2208562090734929 0.2439956698843654 1.191023856318107
thorax -6.2857274543590815 0.7677906572011158 1.2124292937198218
lowerneck -16.445206811895055 -3.247868180518616 -2.8075174492057227
upperneck 21.19293362588712 -4.6862724558969715 2.043632029210739
head 9.487308556362693 -2.0496812482911433 0.5719617193772701
lclavicle 2.948564670355435e-16 4.288729809446713e-17
lhumerus -31.309579758530003 1.0358749310164783 80.48270661113307
lradius 23.90695489633231
lwrist 7.757451234214386
lhand -29.29005343958783 19.000479424398428
lfingers 7.125020000000001
lthumb -2.5656939519336395 49.16358235587107
rclavicle 2.972254958603191e-16 5.396461301432174e-17
rhumerus -31.576874897919197 -20.177001338637808 -77.26523644687417
rradius 29.47657697085307
rwrist 3.0132429680112294
rhand -17.747731792256772 22.85327087839086
rfingers 7.125020000000001
rthumb 8.358842261132006 -6.9979021052843455
72
root 0.9638236389852999 17.869485302244453 21.358475389796695 -3.6364696380485233 -0.9212466465884119 0.060444835774291494
lfemur -2.161742066980037 -2.5475556888908057 -24.837276951219202
ltibia 27.822675777778283
lfoot -7.496606525963983 -2.432788094750045
ltoes -10.042083668721688
rfemur -24.067850318672726 -1.8460294799240806 23.609818542124493
rtibia 69.35942412650489
rfoot -4.7096550161073765 -9.600255996749866
rtoes 5.657430698956324
lowerback 11.591022030711446 0.26066011845134707 -1.1392133230773236
upperback 0.23225951189408722 -0.19200320860896913 1.2534592977607235
thorax -6.271855977782317 0.5635400908826588 1.728109096857004
lowerneck -16.420119703189158 -3.225178163932827 -2.7950898645907403
upperneck 21.23474611069337 -4.601563764222057 2.037407913712229
head 9.484022556635898 -2.0248120825611693 0.563751323265818
lclavicle 2.948565585073547e-16 4.288738911177791e-17
lhumerus -31.385957951945933 0.42139456403953535 80.5370277728279
lradius 24.391824951749786
lwrist 7.860146610799195
lhand -29.29296369936652 19.080266940161923
lfingers 7.125020000000001
lthumb -2.575401487384738 49.21081493170881
rclavicle 2.9722549552961895e-16 5.396461362404786e-17
rhumerus -31.99541809360749 -19.98342393350731 -77.16164606341364
rradius 29.444279973755904
rwrist 2.775772314285709
rhand -17.74162917933094 22.843229539518383
rfingers 7.125020000000001
rthumb 8.390926020000856 -6.937001672699206
73
root 0.9428498969773447 17.841755953433225 21.9913678461065 -3.2166172192769533 -0.632614447240299 0.3702302896907712
lfemur 0.15069305384356735 -2.515241293116932 -25.214148623654786
ltibia 26.85083308350428
lfoot -7.1417642295223 -2.2642196996767376
ltoes -9.994154889354906
rfemur -24.613150443021162 -1.1428885444601948 23.377194700156178
rtibia 62.0593832377803
rfoot -5.244251008123685 -9.872369562765076
rtoes 4.439667872905124
lowerback 11.630520303059761 -0.012509261861407578 -1.53432468562716
upperback 0.22267610248470437 -0.5862189221565359 1.308065675867321
thorax -6.222392443199152 0.3595813140057371 2.2573010576580583
lowerneck -16.39427711498084 -3.2177666323354077 -2.795141633471561
upperneck 21.207270811048474 -4.551328946988605 2.0348536901611274
head 9.483719932649917 -2.0067597429952295 0.5596566113623946
lclavicle 2.9485645288090067e-16 4.288732527400878e-17
lhumerus -31.49684883639764 0.14434594743930784 80.51152439875165
lradius 24.952572862522462
lwrist 7.881285734977933
lhand -29.29433406184221 19.16609705573794
lfingers 7.125020000000001
lthumb -2.590719695568496 49.25054658718261
rclavicle 2.9722552293378304e-16 5.396463406409791e-17
rhumerus -32.485799191422096 -19.897352670896094 -77.09893728776525
rradius 29.189426504488573
rwrist 2.681282296117321
rhand -17.73900116109514 22.823862182613016
rfingers 7.125020000000001
rthumb 8.430223077459338 -6.88778474405937
74
root 0.914344410913741 17.81744360316248 22.505825543534847 -2.7186601100634555 -0.3534169225508858 0.6260505892179569
lfemur 2.5518976074999804 -2.3262766586550017 -25.43039702088597
ltibia 24.58694673832288
lfoot -6.519250788661962 -2.108107542470089
ltoes -9.939586113781914
rfemur -24.98602570013535 -0.10686100176610935 22.60331952413003
rtibia 52.08534616912377
rfoot -5.609009289420696 -10.39743925684948
rtoes 3.106754669559359
lowerback 11.599971744110363 -0.25629888799351097 -1.919879335473729
upperback 0.195328197434675 -0.9397750995456338 1.353637950368446
thorax -6.141532216012269 0.16303825210429163 2.7714907926243937
lowerneck -16.34094315250475 -3.2147168669463775 -2.79608398144896
upperneck 21.144832220380273 -4.532706416685771 2.072359773289584
head 9.479488912507946 -2.003979889307237 0.5587768923242655
lclavicle 2.948565021179491e-16 4.288734316333476e-17
lhumerus -31.563494959226396 0.3888203475085916 80.40650198322862
lradius 25.571808949875432
lwrist 7.78283346108173
lhand -29.299062878954224 19.245451946209407
lfingers 7.125020000000001
lthumb -2.6124357456168856 49.278178870988064
rclavicle 2.9722554254016033e-16 5.3964649506831945e-17
rhumerus -32.91315109859498 -19.888766404792534 -76.87932307535861
rradius 28.65915509498164
rwrist 2.76602958540984
rhand -17.74150355959635 22.801509691113868
rfingers 7.125020000000001
rthumb 8.472726448249102 -6.853771877256141
75
root 0.8790663039882831 17.79129785579321 23.093197830780557 -2.2382170210669994 -0.029078918043255686 0.8556073729723259
lfemur 5.060301768544668 -2.0084680425128862 -25.446014128559696
ltibia 21.284602005957446
lfoot -6.314280363325665 -2.731731893200207
ltoes -9.861278099213644
rfemur -24.423315769826566 1.3366583698266725 21.90331251857311
rtibia 40.212725219957186
rfoot -5.62032068055324 -10.836226130202542
rtoes 2.1844730574343267
lowerback 11.497415538166763 -0.46064797061246954 -2.26023028581538
upperback 0.1566840001122169 -1.2449024011813763 1.4022472027866948
thorax -6.043871651025243 -0.027143937982870375 3.2296180332557274
lowerneck -16.272362579515264 -3.2166821583398044 -2.7996694808604987
upperneck 21.0957278050125 -4.556157967159293 2.102920507340992
head 9.481247502618302 -2.006494779018115 0.5791720104712258
lclavicle 2.9485639821426743e-16 4.288724131178707e-17
lhumerus -31.617641281607316 0.9230885816883037 80.29094298592514
lradius 26.227844059356173
lwrist 7.594080152943672
lhand -29.304958677442375 19.325581459450515
lfingers 7.125020000000001
lthumb -2.6339030048003087 49.3075640977601
rclavicle 2.972255237987495e-16 5.3964636103232074e-17
rhumerus -33.34812225572447 -20.065350935484904 -76.52150692808574
rradius 27.883163876184007
rwrist 3.038323649739351
rhand -17.7477051545249 22.78620595537629
rfingers 7.125020000000001
rthumb 8.516444206322866 -6.82821642494781
76
root 0.8340876329037745 17.75412115624663 23.59735456009588 -1.8999166528592937 0.3012551029279883 0.9755420140185298
lfemur 7.443613942490374 -1.7675058745446965 -25.53315681683114
ltibia 17.48416875391987
lfoot -5.902630791739427 -3.4851077056221778
ltoes -9.51229154188753
rfemur -24.294088699782428 2.669693946232189 20.920232338365583
rtibia 28.313255753427185
rfoot -5.457644719780161 -11.186665598376324
rtoes 0.9990177173488188
lowerback 11.349738145706503 -0.6243131757575046 -2.5260666319519753
upperback 0.12215232283980884 -1.4745501681448643 1.47569334562779
thorax -5.9441535462379065 -0.20574828692983968 3.6209495839665706
lowerneck -16.18441250619198 -3.2211130330194457 -2.8016688236342397
upperneck 21.100657748413102 -4.591507105193112 2.127327640418393
head 9.478014597065288 -2.0173877719302435 0.5954827447657534
lclavicle 2.9485640993461e-16 4.2887258136420345e-17
lhumerus -31.431001794939345 1.732955612221975 80.35762140690863
lradius 26.895464075055038
lwrist 7.373114412472739
lhand -29.314158816061052 19.398013345928298
lfingers 7.125020000000001
lthumb -2.6592374179928275 49.327059489110304
rclavicle 2.972255492009842e-16 5.396465354564995e-17
rhumerus -33.79630857992187 -20.36445755698344 -76.08036403923956
rradius 26.955999791787
rwrist 3.575531952702477
rhand -17.75631784352208 22.77913956833073
rfingers 7.125020000000001
rthumb 8.559252755639442 -6.81352965164565
77
root 0.7823839767866639 17.711834178963517 24.29308485495297 -1.7781342316029438 0.584008466835236 0.949102144626643
lfemur 9.365828310828189 -1.8841014341917124 -25.49620304415764
ltibia 14.639631852330155
lfoot -6.148940089717089 -3.7734783968583736
ltoes -8.973268756267881
rfemur -23.75311395849023 3.4507336837116163 20.842556294686517
rtibia 19.415318667302614
rfoot -5.156852586436018 -11.167050435172612
rtoes -0.6469039059520325
lowerback 11.199666317863832 -0.7589241924707012 -2.706922621092742
upperback 0.10051674962361093 -1.6147295881727046 1.5856376792091362
thorax -5.8534634883515775 -0.3608275874435526 3.9533746637848575
lowerneck -16.108533410142282 -3.234340087966734 -2.8100978050343803
upperneck 21.129799687426036 -4.612360441180559 2.1052566301040927
head 9.475364038406463 -2.0291495161105044 0.6026718674742755
lclavicle 2.9485639317909676e-16 4.288726456974956e-17
lhumerus -31.427246390929696 2.409627467706976 80.39884909750755
lradius 27.545957036279244
lwrist 7.198073526978352
lhand -29.323081721251405 19.473004816382552
lfingers 7.125020000000001
lthumb -2.6819297786121665 49.35791131332505
rclavicle 2.9722551385367947e-16 5.396462931360815e-17
rhumerus -34.25622417118179 -20.855955730036627 -75.451228448596
rradius 25.95932279149328
rwrist 4.403377004924095
rhand -17.76484552148656 22.782834785834073
rfingers 7.125020000000001
rthumb 8.593212054142791 -6.819856532929254
